# xmcd
#
# Track frame offsets: 
#        150
#        27914
#        44469
#        67679
#        91264
#        109147
#        128999
#        150681
#        172359
#        208637
#        231459
#        248697
#        270094
#        288654
#        305437
#        326222
#
# Disc length: 4613 seconds
#
# Revision: 1
# Processed by: cddbd v1.5.2PL0 Copyright (c) Steve Scherf et al.
# Submitted via: ExactAudioCopyFreeDBPlugin 1.0
#
DISCID=e5120310
DTITLE=Brass Construction - Brass Construction III and IV
DYEAR=1978
DGENRE=Funk
TTITLE0=We
TTITLE1=L-O-V-E-U
TTITLE2=Happy People
TTITLE3=Celebrate
TTITLE4=Top Of The World
TTITLE5=Yesterday
TTITLE6=Wake Up
TTITLE7=Get It Together
TTITLE8=Get Up
TTITLE9=One To One
TTITLE10=Perceptions (What's The Right Direction)
TTITLE11=Pick Yourself Up
TTITLE12=Help Yourself
TTITLE13=Night Chaser
TTITLE14=Starting Tomorrow
TTITLE15=Sweet As Sugar
EXTD=
EXTT0=
EXTT1=
EXTT2=
EXTT3=
EXTT4=
EXTT5=
EXTT6=
EXTT7=
EXTT8=
EXTT9=
EXTT10=
EXTT11=
EXTT12=
EXTT13=
EXTT14=
EXTT15=
PLAYORDER=
